<?xml version="1.0" encoding="utf-8"?>
<!-- Generator: Adobe Illustrator 18.1.0, SVG Export Plug-In . SVG Version: 6.00 Build 0)  -->
<svg version="1.1" id="Layer_1" xmlns="http://www.w3.org/2000/svg" xmlns:xlink="http://www.w3.org/1999/xlink" x="0px" y="0px"
	 viewBox="0 0 61.5 64" enable-background="new 0 0 61.5 64" xml:space="preserve">
<path fill="#F05F53" d="M44.7,32.1c-1.8,0-3.3,1.5-3.3,3.3l0,14c-0.1,3.1-2.6,5.6-5.7,5.6c-3.2,0-5.7-2.2-5.8-5.6h0l0-14.2
	c-0.1-1.7-1.5-3.2-3.2-3.2c-1.8,0-3.2,1.5-3.2,3.3l0,14C23.3,52.5,21,55,17.8,55c-3.2,0-5.5-2.6-5.5-5.8V0H0v64h48.1V35.3
	C48.1,33.5,46.5,32.1,44.7,32.1z"/>
<path fill="#F05F53" d="M14.5,0v49.2c0,1.8,1.6,3.3,3.4,3.3c1.8,0,3.4-1.5,3.4-3.3V35.3c0-3.2,2.4-5.8,5.6-5.8
	c3.2,0,5.6,2.6,5.6,5.8v13.9c0,1.8,1.6,3.2,3.4,3.2c1.8,0,3.3-1.5,3.3-3.3V35.3c0-3.2,2.4-5.8,5.6-5.8c3.2,0,5.6,2.6,5.6,5.8V64
	h11.2V0H14.5z"/>
</svg>
